<svg width="43" height="42" viewBox="0 0 43 42" fill="none" xmlns="http://www.w3.org/2000/svg">
<ellipse cx="21.27" cy="21.3785" rx="21.0265" ry="20.5136" fill="#C0B7E8"/>
<path d="M17.7733 30.2833C17.7733 30.2833 17.074 27.486 18.4727 26.0874C18.4727 26.0874 15.6754 26.0874 13.5774 23.9894C11.4794 21.8914 12.1787 17.6954 13.5774 16.2968C12.878 14.1988 14.2767 12.8001 14.2767 12.8001C14.2767 12.8001 16.3747 12.8001 17.7733 14.1988C19.172 13.4995 22.6686 13.4995 24.0673 14.1988C25.4659 12.8001 27.5639 12.8001 27.5639 12.8001C27.5639 12.8001 28.9626 14.1988 28.2633 16.2968C29.6619 17.6954 30.3612 21.8914 28.2633 23.9894C26.1653 26.0874 23.368 26.0874 23.368 26.0874C24.7666 27.486 24.0673 30.2833 24.0673 30.2833M17.074 29.584C14.976 30.2833 12.878 28.8847 12.1787 28.1853" stroke="#302C42" stroke-width="2.09799" stroke-linecap="round" stroke-linejoin="round"/>
</svg>
