<svg width="43" height="42" viewBox="0 0 43 42" fill="none" xmlns="http://www.w3.org/2000/svg">
<path d="M42.297 21.3785C42.297 32.7079 32.8831 41.8922 21.2705 41.8922C9.65789 41.8922 0.244019 32.7079 0.244019 21.3785C0.244019 10.0492 9.65789 0.864914 21.2705 0.864914C32.8831 0.864914 42.297 10.0492 42.297 21.3785Z" fill="#C0B7E8"/>
<path d="M20.8714 12.0542C19.2445 12.0562 17.6457 12.4781 16.2297 13.2793C14.8137 14.0804 13.6286 15.2335 12.7889 16.627C11.9493 18.0205 11.4837 19.6072 11.4371 21.2334C11.3906 22.8596 11.7647 24.4704 12.5232 25.9096L11.8151 28.3922C11.7302 28.6917 11.7267 29.0083 11.805 29.3096C11.8834 29.6108 12.0407 29.8856 12.2608 30.1057C12.4809 30.3258 12.7557 30.4832 13.057 30.5615C13.3582 30.6399 13.6749 30.6364 13.9743 30.5514L16.4569 29.8433C17.7239 30.5125 19.1266 30.8844 20.5587 30.931C21.9908 30.9776 23.4148 30.6977 24.7226 30.1123C26.0304 29.527 27.1879 28.6516 28.1072 27.5526C29.0266 26.4535 29.6837 25.1596 30.0288 23.769C30.3739 22.3783 30.3979 20.9273 30.0991 19.526C29.8002 18.1246 29.1863 16.8097 28.3039 15.6808C27.4214 14.5519 26.2936 13.6387 25.0059 13.0104C23.7182 12.382 22.3043 12.055 20.8714 12.0542ZM20.8714 28.838C19.5528 28.8355 18.2586 28.4825 17.1213 27.8153C16.9619 27.7146 16.7765 27.6629 16.588 27.6667C16.4908 27.6653 16.3937 27.6771 16.2996 27.7016L14.0093 28.3573L14.6649 26.067C14.7033 25.9295 14.7131 25.7857 14.6935 25.6443C14.674 25.5029 14.6255 25.3671 14.5512 25.2453C13.884 24.1079 13.531 22.8137 13.5285 21.4951C13.5285 20.0428 13.9591 18.6231 14.766 17.4156C15.5728 16.208 16.7197 15.2669 18.0614 14.7111C19.4032 14.1553 20.8796 14.0099 22.304 14.2932C23.7284 14.5766 25.0367 15.2759 26.0637 16.3029C27.0906 17.3298 27.79 18.6382 28.0733 20.0626C28.3566 21.487 28.2112 22.9634 27.6554 24.3051C27.0997 25.6469 26.1585 26.7937 24.951 27.6005C23.7434 28.4074 22.3237 28.838 20.8714 28.838ZM24.7177 19.7468C24.7177 20.025 24.6072 20.2918 24.4105 20.4885C24.2138 20.6853 23.947 20.7958 23.6687 20.7958H18.0741C17.7959 20.7958 17.5291 20.6853 17.3324 20.4885C17.1356 20.2918 17.0251 20.025 17.0251 19.7468C17.0251 19.4686 17.1356 19.2018 17.3324 19.005C17.5291 18.8083 17.7959 18.6978 18.0741 18.6978H23.6687C23.947 18.6978 24.2138 18.8083 24.4105 19.005C24.6072 19.2018 24.7177 19.4686 24.7177 19.7468ZM24.7177 23.2434C24.7177 23.5216 24.6072 23.7884 24.4105 23.9852C24.2138 24.1819 23.947 24.2924 23.6687 24.2924H18.0741C17.7959 24.2924 17.5291 24.1819 17.3324 23.9852C17.1356 23.7884 17.0251 23.5216 17.0251 23.2434C17.0251 22.9652 17.1356 22.6984 17.3324 22.5017C17.5291 22.305 17.7959 22.1944 18.0741 22.1944H23.6687C23.947 22.1944 24.2138 22.305 24.4105 22.5017C24.6072 22.6984 24.7177 22.9652 24.7177 23.2434Z" fill="#302C42"/>
</svg>
