<svg width="42" height="42" viewBox="0 0 42 42" fill="none" xmlns="http://www.w3.org/2000/svg">
<mask id="mask0_62_31" style="mask-type:luminance" maskUnits="userSpaceOnUse" x="0" y="0" width="42" height="42">
<path d="M20.6488 40.0273C30.9485 40.0273 39.2975 31.6783 39.2975 21.3785C39.2975 11.0788 30.9485 2.72979 20.6488 2.72979C10.349 2.72979 2 11.0788 2 21.3785C2 31.6783 10.349 40.0273 20.6488 40.0273Z" fill="white" stroke="white" stroke-width="3.72975" stroke-linecap="round" stroke-linejoin="round"/>
<path d="M29.5461 24.1759C28.3582 27.9588 24.8242 30.7029 20.6488 30.7029C16.4743 30.7029 12.9394 27.9588 11.7515 24.1759V29.7705M29.5461 12.9866V18.5812C28.3582 14.7983 24.8242 12.0542 20.6488 12.0542C16.4743 12.0542 12.9394 14.7983 11.7515 18.5812" stroke="black" stroke-width="3.72975" stroke-linecap="round" stroke-linejoin="round"/>
</mask>
<g mask="url(#mask0_62_31)">
<path d="M-1.72974 -0.999962H43.0273V43.757H-1.72974V-0.999962Z" fill="#C0B7E8"/>
</g>
</svg>
